<?xml version="1.0" encoding="UTF-8"?>
<svg id="Layer_2" data-name="Layer 2" xmlns="http://www.w3.org/2000/svg" viewBox="0 0 296.73 295.56">
  <defs>
    <style>
      .cls-1 {
        fill: #cf141e;
      }

      .cls-1, .cls-2 {
        stroke-width: 0px;
      }

      .cls-2 {
        fill: #fff;
      }
    </style>
  </defs>
  <g id="Layer_1-2" data-name="Layer 1">
    <g>
      <path class="cls-1" d="m294.72,294.56c-.29,0-.57-.13-.76-.35l-.17-.2c-.19-.12-.42-.29-.56-.57-8.75-7.54-17.62-15.24-26.19-22.68-21.6-18.76-43.94-38.16-66.39-56.66-9.9-8.15-21.24-14.95-32.21-21.53-2.7-1.62-5.39-3.23-8.06-4.86-4.69-2.87-9.64-4.32-14.72-4.32s-10.32,1.41-15.81,4.18c-17.38,8.79-34.74,20.84-54.64,37.91-15.75,13.51-31.44,27.64-46.61,41.31-6.51,5.86-13.02,11.73-19.56,17.56l-.28.25c-1.81,1.62-3.67,3.29-6.42,4.24-.11.04-.22.06-.33.06-.32,0-.63-.16-.82-.43-.25-.37-.23-.87.06-1.21.44-.52.89-1.05,1.33-1.58.94-1.12,1.9-2.28,2.9-3.4,29.78-33.29,56.29-63.64,79.06-98.02,4.74-7.15,8.85-14.92,12.83-22.43l1.55-2.93c5.98-11.26,5.98-22.51,0-32.52l-3.01-5.04c-9.49-15.9-19.3-32.35-30.62-47.22-11.66-15.32-24.48-30.18-36.88-44.56-5.2-6.03-10.58-12.27-15.8-18.45l-.98-1.15c-1.96-2.29-3.98-4.66-5.5-7.47-.23-.43-.12-.96.27-1.26.18-.14.4-.21.62-.21.24,0,.48.09.67.26,4.26,3.88,8.53,7.88,12.67,11.75,9.21,8.62,18.74,17.54,28.63,25.64,19.4,15.89,39.66,31.4,59.25,46.4l7.94,6.08c9.43,7.23,18.71,10.74,28.38,10.74s19.16-3.38,29.62-10.32c31.9-21.19,60.25-46.18,88.9-72.07,1.39-1.26,2.77-2.52,4.16-3.79,5.1-4.67,10.37-9.51,16.1-13.81.18-.13.39-.2.6-.2.27,0,.53.11.73.31.35.37.36.94.04,1.33-.45.53-.89,1.06-1.34,1.59-.94,1.12-1.91,2.28-2.91,3.4-27.08,30.18-53.18,60.02-74.95,93.14-4.72,7.18-8.79,14.99-12.72,22.55l-1.21,2.33c-5.91,11.32-5.83,22.57.22,32.51,1.77,2.91,3.54,5.84,5.3,8.77,9.15,15.17,18.61,30.86,29.6,44.94,12.94,16.59,27.28,32.83,41.14,48.54,7.77,8.81,15.81,17.92,23.48,26.95.95,1.12,1.91,2.23,2.86,3.34l.96,1.11c.22.14.5.38.59.78.06.26,0,.6-.13.83-.17.27-.45.45-.77.48-.03,0-.05,0-.08,0Z"/>
      <path class="cls-2" d="m6.99,2c13.74,12.52,26.98,25.66,41.34,37.42,21.99,18.01,44.65,35.21,67.22,52.51,9.68,7.42,19.27,10.95,28.99,10.95s19.84-3.62,30.17-10.49c32.02-21.28,60.64-46.52,89.02-72.16,6.59-5.95,12.97-12.12,20.18-17.54-1.41,1.66-2.77,3.35-4.23,4.97-26.68,29.75-53.04,59.78-75.04,93.26-5.23,7.95-9.57,16.51-13.98,24.96-5.81,11.13-6.28,22.76.25,33.49,11.13,18.27,21.85,36.99,34.97,53.8,20.23,25.94,43.34,50.42,64.65,75.51,1.3,1.53,2.61,3.04,3.92,4.56-.19-.12-.4-.23-.33-.35-30.88-26.6-61.39-53.65-92.84-79.56-12.35-10.18-26.65-18.08-40.39-26.47-5-3.06-10.09-4.46-15.24-4.46s-10.79,1.52-16.26,4.29c-20.07,10.15-37.92,23.52-54.84,38.04-22.41,19.23-44.16,39.22-66.19,58.89-1.85,1.66-3.67,3.36-6.36,4.29,1.4-1.65,2.76-3.34,4.21-4.96,28.06-31.36,55.85-62.96,79.15-98.14,5.37-8.11,9.85-16.83,14.43-25.44,5.9-11.1,6.39-22.76-.03-33.5-10.65-17.81-21.15-35.89-33.69-52.36C49.49,51.73,31.02,31.4,13.35,10.46c-2.27-2.69-4.65-5.28-6.36-8.46m287.46,291.24c.17.1.33.21.27.31-.09-.1-.18-.21-.27-.31M6.99,0c-.43,0-.87.14-1.23.42-.77.6-.99,1.67-.53,2.52,1.57,2.91,3.63,5.32,5.62,7.65.33.38.65.76.98,1.15,5.23,6.19,10.61,12.43,15.82,18.47,12.39,14.36,25.2,29.21,36.84,44.51,11.29,14.83,21.08,31.25,30.56,47.13,1,1.68,2,3.36,3.01,5.04,5.8,9.7,5.79,20.6-.02,31.54-.52.98-1.04,1.95-1.55,2.93-3.97,7.49-8.07,15.24-12.78,22.35-22.74,34.32-49.22,64.65-78.97,97.91-1.01,1.13-1.98,2.3-2.93,3.43-.44.53-.88,1.05-1.32,1.57-.58.69-.63,1.68-.12,2.42.38.55,1,.87,1.65.87.22,0,.44-.04.66-.11,2.93-1.02,4.96-2.84,6.76-4.44l.28-.25c6.54-5.84,13.16-11.8,19.56-17.56,15.17-13.66,30.86-27.79,46.6-41.3,19.84-17.02,37.14-29.02,54.44-37.78,5.35-2.7,10.51-4.08,15.36-4.08s9.67,1.4,14.2,4.17c2.68,1.64,5.42,3.28,8.07,4.87,10.94,6.56,22.26,13.34,32.09,21.45,22.44,18.49,44.78,37.89,66.38,56.65,8.53,7.41,17.35,15.07,26.06,22.57.2.31.46.53.67.67l.08.09c.38.44.94.7,1.52.7.05,0,.11,0,.16,0,.64-.05,1.21-.4,1.54-.95.29-.48.38-1.04.25-1.59-.16-.65-.57-1.05-.89-1.28l-.89-1.03c-.95-1.1-1.9-2.2-2.84-3.31-7.68-9.04-15.72-18.16-23.5-26.97-13.85-15.69-28.17-31.92-41.09-48.48-10.95-14.04-20.4-29.71-29.54-44.86-1.76-2.92-3.52-5.84-5.29-8.75-5.86-9.63-5.93-20.53-.19-31.52l1.22-2.33c3.92-7.53,7.97-15.32,12.66-22.45,21.73-33.06,47.81-62.86,74.86-93.02,1.01-1.13,1.99-2.3,2.94-3.43.44-.53.88-1.05,1.32-1.57.66-.78.63-1.92-.07-2.67-.39-.42-.92-.63-1.46-.63-.42,0-.84.13-1.2.4-5.76,4.33-11.05,9.18-16.17,13.86-1.38,1.27-2.76,2.53-4.15,3.79-28.62,25.86-56.94,50.82-88.78,71.98-10.29,6.83-19.79,10.16-29.07,10.16s-18.53-3.45-27.77-10.53c-2.65-2.03-5.3-4.06-7.96-6.09-19.58-14.99-39.83-30.5-59.21-46.37-9.87-8.08-19.38-16.99-28.58-25.6-4.14-3.87-8.41-7.87-12.68-11.76-.38-.35-.86-.52-1.35-.52h0Z"/>
    </g>
  </g>
</svg>